<svg id="Layer_1" data-name="Layer 1" xmlns="http://www.w3.org/2000/svg" viewBox="0 0 247.65 278.7"><polygon points="171.61 247.11 123.97 274.61 76.34 247.11 123.98 219.61 171.61 247.11" style="fill:#4068b1;stroke:#fff;stroke-miterlimit:10;stroke-width:2px"/><polygon points="171.61 217.11 123.97 244.61 76.34 217.11 123.98 189.61 171.61 217.11" style="fill:#28a79a;stroke:#fff;stroke-miterlimit:10;stroke-width:2px"/><polygon points="171.61 186.11 123.97 213.61 76.34 186.11 123.98 158.61 171.61 186.11" style="fill:#903e98;stroke:#fff;stroke-linejoin:round;stroke-width:2px"/><polygon points="193.72 43.78 241.35 71.29 241.35 126.29 193.72 98.78 193.72 43.78" style="fill:#4068b1;stroke:#fff;stroke-miterlimit:10;stroke-width:2px"/><polygon points="167.74 58.78 215.37 86.29 215.37 141.29 167.74 113.78 167.74 58.78" style="fill:#28a79a;stroke:#fff;stroke-miterlimit:10;stroke-width:2px"/><polygon points="140.89 74.28 188.53 101.79 188.53 156.79 140.89 129.28 140.89 74.28" style="fill:#903e98;stroke:#fff;stroke-linejoin:round;stroke-width:2px"/><polygon points="6.58 126.3 6.58 71.29 54.21 43.79 54.21 98.8 6.58 126.3" style="fill:#4068b1;stroke:#fff;stroke-miterlimit:10;stroke-width:2px"/><polygon points="32.56 141.3 32.56 86.29 80.19 58.79 80.19 113.8 32.56 141.3" style="fill:#28a79a;stroke:#fff;stroke-miterlimit:10;stroke-width:2px"/><polygon points="59.4 156.8 59.41 101.79 107.04 74.29 107.03 129.3 59.4 156.8" style="fill:#903e98;stroke:#fff;stroke-linejoin:round;stroke-width:2px"/><polygon points="123.98 194.06 76.34 166.56 76.34 111.56 123.97 139.06 123.98 194.06" style="fill:#692d91;stroke:#fff;stroke-linejoin:round;stroke-width:2px"/><polygon points="171.61 111.56 123.97 139.06 76.34 111.56 123.98 84.06 171.61 111.56" style="fill:#692d91;stroke:#fff;stroke-linejoin:round;stroke-width:2px"/><polygon points="171.61 111.56 171.61 166.56 123.98 194.06 123.97 139.06 171.61 111.56" style="fill:#692d91;stroke:#fff;stroke-linejoin:round;stroke-width:2px"/><polygon points="123.98 194.06 76.34 166.56 76.34 111.56 123.97 139.06 123.98 194.06" style="fill:#692d91;stroke:#fff;stroke-linejoin:round;stroke-width:2px"/><polygon points="171.61 111.56 123.97 139.06 76.34 111.56 123.98 84.06 171.61 111.56" style="fill:#692d91;stroke:#fff;stroke-linejoin:round;stroke-width:2px"/><polygon points="171.61 111.56 171.61 166.56 123.98 194.06 123.97 139.06 171.61 111.56" style="fill:#692d91;stroke:#fff;stroke-linejoin:round;stroke-width:2px"/><polygon points="188.53 121.33 188.53 176.34 140.9 203.83 140.9 148.83 188.53 121.33" style="fill:#903e98;stroke:#fff;stroke-linejoin:round;stroke-width:2px"/><polygon points="107.04 203.84 59.41 176.34 59.41 121.34 107.05 148.84 107.04 203.84" style="fill:#903e98;stroke:#fff;stroke-linejoin:round;stroke-width:2px"/><polygon points="76.33 92.02 123.97 64.52 171.6 92.02 123.96 119.52 76.33 92.02" style="fill:#903e98;stroke:#fff;stroke-linejoin:round;stroke-width:2px"/><polygon points="215.38 136.83 215.37 191.84 167.74 219.33 167.75 164.33 215.38 136.83" style="fill:#28a79a;stroke:#fff;stroke-miterlimit:10;stroke-width:2px"/><polygon points="76.33 61.02 123.97 33.52 171.6 61.02 123.96 88.52 76.33 61.02" style="fill:#28a79a;stroke:#fff;stroke-miterlimit:10;stroke-width:2px"/><polygon points="80.2 219.34 32.56 191.84 32.56 136.84 80.2 164.34 80.2 219.34" style="fill:#28a79a;stroke:#fff;stroke-miterlimit:10;stroke-width:2px"/><polygon points="54.22 234.34 6.58 206.84 6.58 151.84 54.22 179.34 54.22 234.34" style="fill:#4068b1;stroke:#fff;stroke-miterlimit:10;stroke-width:2px"/><polygon points="241.36 151.83 241.35 206.84 193.72 234.33 193.73 179.33 241.36 151.83" style="fill:#4068b1;stroke:#fff;stroke-miterlimit:10;stroke-width:2px"/><polygon points="76.33 31.02 123.97 3.52 171.6 31.02 123.96 58.52 76.33 31.02" style="fill:#4068b1;stroke:#fff;stroke-miterlimit:10;stroke-width:2px"/></svg>